<svg version="1.2" xmlns="http://www.w3.org/2000/svg" viewBox="0 0 1232 445" width="1232" height="445"><style>.s0{fill:#fc3b18}.s1{fill:#0a4c60}.s2{fill:#ffffff}</style><path class="s0" d="m444.3 89.7v265.4c0 49.4-40 89.5-89.4 89.5h-265.4c-49.4 0-89.5-40.1-89.5-89.5v-265.4c0-49.4 40.1-89.5 89.5-89.5h265.4c49.4 0 89.4 40.1 89.4 89.5z" /><path fill-rule="evenodd" class="s1" d="m555.6 234.8q-11.9 0-11.9 8.9q0 5.1 2.8 6.9q2.7 1.9 11.1 3.8q8.4 1.8 11.9 4.8q3.5 3 3.5 9.8q0 17-17.6 17q-5.8 0-14.5-1.4l-2.9-0.4l0.6-5.1q10.8 1.5 16.5 1.5q11.8 0 11.8-11.1q0-4.4-2.6-6.4q-2.6-1.9-9.7-3.3q-9.3-2-13.2-5.1q-3.9-3.2-3.9-10.6q0-14.7 17.7-14.7q5.9 0 14 1.1l2.7 0.4l-0.6 5.2q-11-1.3-15.7-1.3zm25.2 30.5q0-10.9 3.9-15.8q3.9-4.8 13.1-4.8q9.3 0 13.1 4.8q3.9 4.9 3.9 15.8q0 10.9-3.7 15.8q-3.6 4.9-13.3 4.9q-9.7 0-13.4-4.9q-3.6-4.9-3.6-15.8zm6.1-0.1q0 8.7 2.1 12.2q2.1 3.5 8.8 3.5q6.7 0 8.8-3.5q2.1-3.4 2.1-12.2q0-8.7-2.3-12q-2.3-3.3-8.6-3.3q-6.2 0-8.6 3.3q-2.3 3.3-2.3 12zm38.1-37h5.9v57h-5.9zm42.7 17.4h5.9v39.7h-5.9v-2.7q-6 3.5-11.8 3.5q-8.1 0-10.8-4.2q-2.6-4.2-2.6-15.6v-20.7h5.9v20.7q0 8.6 1.5 11.6q1.6 2.9 6.9 2.9q2.6 0 5.3-0.8q2.7-0.7 4.1-1.4l1.5-0.7zm40.3 49.8q0 7.2-7.4 7.2q-3.7 0-6-0.4l-0.8-0.2l0.2-3.8q3.1 0.2 5.2 0.2q3.5 0 3.5-3q0-2.7-3.5-2.7h-3.3v-6.8q-7-0.8-9.7-5.7q-2.8-4.8-2.8-15.6q0-10.7 3.8-15.3q3.8-4.5 12.8-4.5q2.6 0 8.9 0.9l1.9 0.3l-0.3 4.8q-6.3-0.7-9.4-0.7q-6.7 0-9.1 3.2q-2.5 3.2-2.5 11.9q0 8.7 2.3 12.2q2.3 3.4 9.4 3.4l9.4-0.7l0.2 4.9q-7.3 1.1-11 1.1h-0.6v3.1q4.6 0 6.7 1.3q2.1 1.3 2.1 4.9zm39.8-37.8v20.3q0.3 3 4.6 3.5l-0.2 4.7q-6.3 0-9.5-3.2q-7.1 3.2-14.3 3.2q-5.5 0-8.3-3.1q-2.9-3.1-2.9-8.9q0-5.8 3-8.5q2.9-2.8 9.2-3.4l12.5-1.2v-3.4q0-4.1-1.8-5.8q-1.7-1.8-4.8-1.8q-6.3 0-13.2 0.8l-2.4 0.2l-0.3-4.5q8.8-1.7 15.5-1.7q6.8 0 9.9 3.1q3 3.1 3 9.7zm-9.4-20.9q-1.6 0-5.7-1.9q-4.1-1.9-5.2-1.9q-1.8 0-4.9 2.4l-1 0.8l-1.4-3.8q3.9-4.1 7.2-4.1q1.7 0 5.8 1.8q4.1 1.8 5 1.8q1.7 0 4.8-2.3l0.9-0.7l1.4 3.8q-3.7 4.1-6.9 4.1zm-15.1 37.1q0 7.3 6.1 7.3q5.4 0 10.6-1.8l1.9-0.7v-13.1l-11.8 1.1q-3.6 0.4-5.2 2.1q-1.6 1.7-1.6 5.1zm34.5-8.4q0-10.9 3.9-15.8q3.9-4.8 13.2-4.8q9.3 0 13.1 4.8q3.9 4.9 3.9 15.8q0 10.9-3.7 15.8q-3.6 4.9-13.3 4.9q-9.7 0-13.4-4.9q-3.7-4.9-3.7-15.8zm6.2-0.2q0 8.7 2.1 12.2q2.1 3.5 8.8 3.5q6.7 0 8.8-3.4q2-3.5 2-12.2q0-8.8-2.3-12.1q-2.3-3.3-8.5-3.3q-6.3 0-8.6 3.3q-2.3 3.3-2.3 12zm82.1 15.2l2.3-0.2l0.2 4.6q-9.1 1.3-15.5 1.3q-8.6 0-12.2-5q-3.6-4.9-3.6-15.4q0-20.9 16.6-20.9q8.1 0 12 4.5q4 4.5 4 14.1l-0.3 4.5h-26.2q0 6.6 2.3 9.8q2.4 3.2 8.3 3.2q6 0 12.1-0.5zm-2.2-17.3q0-7.3-2.3-10.3q-2.3-3-7.6-3q-5.3 0-8 3.2q-2.6 3.1-2.7 10.1zm21.2 22.2h-6v-39.7h5.9v2.7q6-3.5 11.6-3.5q7.4 0 10.4 4q2.6-1.6 6.8-2.8q4.1-1.2 7.3-1.2q8 0 10.7 4.2q2.8 4.3 2.8 15.3v21h-6v-20.8q0-8.3-1.6-11.3q-1.6-3.1-6.8-3.1q-2.6 0-5.4 0.7q-2.7 0.8-4.3 1.5l-1.5 0.7q1.1 2.7 1.1 11.6v20.7h-6v-20.5q0-8.6-1.5-11.6q-1.6-3.1-6.8-3.1q-2.6 0-5.3 0.7q-2.6 0.8-4 1.5l-1.4 0.7zm-319.8 87.1h-5.9v-39.8h5.8v2.8q6-3.6 11.6-3.6q7.4 0 10.4 4.1q2.6-1.6 6.8-2.8q4.2-1.3 7.3-1.3q8 0 10.7 4.3q2.8 4.3 2.8 15.3v21h-6v-20.8q0-8.3-1.6-11.4q-1.6-3-6.7-3q-2.7 0-5.4 0.7q-2.8 0.8-4.3 1.5l-1.6 0.7q1.1 2.6 1.1 11.6v20.7h-6v-20.5q0-8.6-1.5-11.7q-1.6-3-6.8-3q-2.6 0-5.2 0.7q-2.7 0.8-4.1 1.5l-1.4 0.7z" /><path fill-rule="evenodd" class="s1" d="m604.1 352.3q0-10.8 3.9-15.7q3.9-4.8 13.2-4.8q9.3 0 13.1 4.8q3.9 4.9 3.9 15.7q0 10.9-3.7 15.9q-3.6 4.9-13.3 4.9q-9.7 0-13.4-4.9q-3.7-5-3.7-15.9zm6.2-0.1q0 8.7 2.1 12.2q2.1 3.5 8.8 3.5q6.7 0 8.8-3.4q2.1-3.5 2.1-12.2q0-8.8-2.4-12.1q-2.3-3.3-8.5-3.3q-6.2 0-8.6 3.3q-2.3 3.3-2.3 12zm55.1-20.4q8.1 0 11.3 4.5q3.2 4.6 3.2 16.1q0 11.4-4 16.1q-4 4.6-14.7 4.6q-3.4 0-11.1-0.6l-2.2-0.3v-57h5.9v19.3q6-2.7 11.6-2.7zm-4.3 36q7.8 0 10.3-3.6q2.5-3.5 2.5-11.9q0-8.5-2-11.8q-2-3.4-7.1-3.4q-4.6 0-9.4 1.7l-1.6 0.6v28q5.1 0.4 7.3 0.4zm28.6-35.2h6v39.7h-6zm0-15.9h6v6.9h-6zm17.9-1.4h6v57.1h-6zm17.9 17.3h5.9v39.8h-5.9zm0-15.9h5.9v6.9h-5.9zm15 21.2v-5.3h29.5v5.3l-22.3 29.1h22.3v5.3h-29.5v-5.3l22.3-29.1zm66.6 6.7v20.3q0.2 3 4.6 3.5l-0.2 4.7q-6.3 0-9.5-3.1q-7.1 3.1-14.3 3.1q-5.5 0-8.4-3.1q-2.8-3.1-2.8-8.9q0-5.8 2.9-8.5q3-2.8 9.2-3.4l12.5-1.2v-3.4q0-4.1-1.7-5.8q-1.8-1.8-4.8-1.8q-6.4 0-13.2 0.8l-2.5 0.3l-0.2-4.6q8.8-1.7 15.5-1.7q6.8 0 9.8 3.1q3.1 3.1 3.1 9.7zm-24.5 16.2q0 7.3 6 7.3q5.5 0 10.7-1.8l1.8-0.6v-13.2l-11.7 1.2q-3.6 0.3-5.2 2q-1.6 1.8-1.6 5.1zm59.2 21.6q0 7.2-7.4 7.2q-3.7 0-6-0.4l-0.9-0.2l0.3-3.8q3.1 0.3 5.2 0.3q3.5 0 3.5-3.1q0-2.7-3.5-2.7h-3.3v-6.8q-7-0.8-9.8-5.6q-2.7-4.9-2.7-15.6q0-10.8 3.8-15.3q3.8-4.6 12.7-4.6q2.7 0 8.9 0.9l1.9 0.3l-0.2 4.8q-6.4-0.7-9.4-0.7q-6.7 0-9.2 3.2q-2.4 3.3-2.4 12q0 8.7 2.3 12.1q2.2 3.4 9.4 3.4l9.4-0.7l0.2 4.9q-7.4 1.1-11 1.1h-0.7v3.1q4.7 0 6.8 1.3q2.1 1.3 2.1 4.9zm26.6-50.6q9.2 0 13.1 4.8q3.8 4.9 3.8 15.8q0 10.9-3.6 15.8q-3.7 4.9-13.4 4.9q-9.7 0-13.3-4.9q-3.7-4.9-3.7-15.8q0-10.9 3.9-15.8q3.9-4.8 13.2-4.8zm5.6-8.1q-1.7 0-5.8-1.9q-4.1-1.9-5.1-1.9q-1.9 0-5 2.4l-1 0.8l-1.4-3.8q4-4.1 7.2-4.1q1.7 0 5.8 1.8q4.1 1.8 5 1.8q1.8 0 4.8-2.3l0.9-0.7l1.4 3.8q-3.7 4.1-6.8 4.1zm-5.6 44.3q6.7 0 8.7-3.5q2.1-3.4 2.1-12.2q0-8.7-2.3-12q-2.3-3.3-8.5-3.3q-6.3 0-8.6 3.3q-2.4 3.3-2.4 12q0 8.7 2.1 12.2q2.1 3.5 8.9 3.5zm53.7-0.6l2.3-0.2l0.1 4.7q-9 1.2-15.5 1.2q-8.6 0-12.1-4.9q-3.6-5-3.6-15.5q0-20.9 16.6-20.9q8 0 12 4.5q4 4.5 4 14.1l-0.3 4.5h-26.3q0 6.6 2.4 9.8q2.4 3.2 8.3 3.2q5.9 0 12.1-0.5zm-2.2-17.2q0-7.4-2.3-10.4q-2.4-3-7.7-3q-5.2 0-7.9 3.2q-2.7 3.2-2.8 10.2zm27.8-13.1q-8.7 0-8.7 6.1q0 2.7 2 3.9q2 1.2 9.1 2.4q7.1 1.2 10 3.4q2.9 2.3 2.9 8.4q0 6.1-3.9 9q-3.9 2.8-11.5 2.8q-4.9 0-11.6-1.1l-2.4-0.4l0.3-5.1q9.1 1.3 13.7 1.3q4.6 0 7.1-1.5q2.4-1.4 2.4-4.9q0-3.4-2.1-4.7q-2.1-1.2-9.1-2.3q-6.9-1.1-9.9-3.3q-2.9-2.1-2.9-7.9q0-5.8 4.1-8.6q4.1-2.8 10.2-2.8q4.8 0 12.1 1.1l2.3 0.4l-0.2 5.1q-8.8-1.3-13.9-1.3z" /><path fill-rule="evenodd" class="s2" d="m384.4 264.3c0.3 30.7-25.6 55.9-56.3 55.9h-180.7l-10.7-0.5q0 0 0 0l22-58.2q0.1 0 0-0.1h-43.4c-30.8 0-55.8-25.3-55.4-56.2c0.5-30.4 25.9-54.6 56.3-54.6h80.8c2.6 0 4.9-1.6 5.9-4c5.3-13.3 18.1-22 32.4-22l93.7 0.4c30.5 0 55.4 24.9 55.4 55.4c0 16.9-7.6 32-19.5 42.2q0 0 0 0c11.8 10.1 19.4 25 19.5 41.7zm-224.2-29.4c5.3 0 10-3.2 11.9-8.1l6.5-16.9v-0.6h0.2l12.3-32.1q0-0.1 0-0.1h-75.1c-15.3 0-28.3 11.5-29.5 26.7c-1.2 16.9 12.2 31.1 28.8 31.1zm48.1-73.4l-18.4 47.8q0 0 0.1 0h139c16.6 0 30.1-14.1 28.8-31.1c-1.1-15.1-14.2-26.7-29.4-26.7h-105.7c-6.4 0-12.1 4-14.4 10zm149.5 105.5c1.3-17-12.2-31.1-28.8-31.1h-149.2q-0.1 0-0.1 0l-22.1 57.7q0 0.1 0 0.1h170.8c15.2 0 28.3-11.6 29.4-26.7z" /><path fill-rule="evenodd" class="s1" d="m733.2 149.3c0 15.4-6.7 41.4-52.2 43.4h-137.8v-145.9h139.2c31.6 0 50.5 15.4 50.5 41.1c0 18.9-11.9 28.1-18.6 31.9c6.8 3.7 18.9 12.7 18.9 29.5zm-48.9-78.4h-114.3v37.7h113.4c13.8 0 23-8.6 23-16.7c0-6.2-2.3-11.6-6.7-15.4c-4-3.7-9.4-5.6-15.4-5.6zm-114.3 97.7h114.3c6.1 0 11.2-1.8 15.3-5.4c3.1-2.6 6.8-7.5 6.8-15.6c0-8.7-8.1-18-23-18h-113.4zm371.3-90.3c2.2 5.7 3.2 12.8 3.2 21.1c0 8.4-1 15.5-3.2 21.1c-2.1 5.6-4.9 10.4-8.3 14.1c-3.4 3.8-7.3 6.8-11.7 9c-4.7 2.4-9.7 4.2-14.8 5.4c-5.3 1.2-10.7 2-15.9 2.4c-5.6 0.4-10.7 0.5-15.4 0.5h-80.7v40.8h-27.1v-145.8h107.8c4.6 0 9.8 0.2 15.4 0.5c5.2 0.4 10.6 1.2 15.9 2.4c5.1 1.3 10.1 3.1 14.8 5.4c4.4 2.2 8.3 5.2 11.7 9c3.4 3.8 6.2 8.5 8.3 14.1zm-27.5 32.2c1.1-3.4 1.6-7.1 1.6-11.1c0-4-0.5-7.7-1.7-11c-1.3-3.8-3.6-7.1-6.9-9.8c-3.1-2.5-7.1-4.4-12-5.5c-4.4-0.9-9.6-1.4-15.9-1.4h-84.4v55.7h84.4c6.4 0 11.7-0.6 16-1.6c4.9-1.2 8.7-3 11.8-5.4c3.4-2.6 5.7-6 7.1-9.9zm62.6-63.6h26.9v145.8h-26.9zm255.6 0v145.9h-51.8l-111.4-128.9v128.9h-26.9v-145.9h51.8l111.5 128.9v-128.9z" /></svg>